<mxfile host="app.diagrams.net" modified="2023-05-22T00:31:41.767Z" agent="Mozilla/5.0 (Windows NT 10.0; Win64; x64) AppleWebKit/537.36 (KHTML, like Gecko) Chrome/113.0.0.0 Safari/537.36" etag="AVaJuvDQLs9BOLKSjZyT" version="21.3.2" type="device">
  <diagram id="677RJHBFE4EjfL2PIw1s" name="Страница 1">
    <mxGraphModel dx="1802" dy="871" grid="0" gridSize="10" guides="1" tooltips="1" connect="1" arrows="1" fold="1" page="0" pageScale="1" pageWidth="1400" pageHeight="850" math="0" shadow="0">
      <root>
        <mxCell id="0" />
        <mxCell id="1" parent="0" />
        <mxCell id="PXV3ohP48C4_PZCZACCz-81" value="" style="rounded=0;whiteSpace=wrap;html=1;labelBackgroundColor=#FFFFFF;fontSize=8;fillColor=default;" parent="1" vertex="1">
          <mxGeometry x="322" y="188" width="811" height="807" as="geometry" />
        </mxCell>
        <mxCell id="PXV3ohP48C4_PZCZACCz-2" value="&lt;span style=&quot;background-color: rgb(255, 255, 255);&quot;&gt;Аудитор&lt;/span&gt;" style="shape=umlActor;verticalLabelPosition=bottom;verticalAlign=top;html=1;outlineConnect=0;" parent="1" vertex="1">
          <mxGeometry x="240" y="870" width="30" height="60" as="geometry" />
        </mxCell>
        <mxCell id="PXV3ohP48C4_PZCZACCz-83" value="&lt;b&gt;&lt;i&gt;&lt;font style=&quot;font-size: 11px;&quot;&gt;Система управления складом&lt;/font&gt;&lt;/i&gt;&lt;/b&gt;" style="text;html=1;strokeColor=none;fillColor=none;align=center;verticalAlign=middle;whiteSpace=wrap;rounded=0;labelBackgroundColor=#FFFFFF;fontSize=8;" parent="1" vertex="1">
          <mxGeometry x="919" y="200" width="202" height="30" as="geometry" />
        </mxCell>
        <mxCell id="UxDNWM6CONCW11zJ59up-1" value="Добавление &lt;br&gt;товара" style="ellipse;whiteSpace=wrap;html=1;" parent="1" vertex="1">
          <mxGeometry x="338" y="268" width="110" height="48" as="geometry" />
        </mxCell>
        <mxCell id="UxDNWM6CONCW11zJ59up-2" value="Обновление &lt;br&gt;товара" style="ellipse;whiteSpace=wrap;html=1;" parent="1" vertex="1">
          <mxGeometry x="448" y="318" width="119" height="50" as="geometry" />
        </mxCell>
        <mxCell id="UxDNWM6CONCW11zJ59up-3" value="Отгрузка товара" style="ellipse;whiteSpace=wrap;html=1;" parent="1" vertex="1">
          <mxGeometry x="520" y="467" width="107" height="48" as="geometry" />
        </mxCell>
        <mxCell id="UxDNWM6CONCW11zJ59up-4" value="Восстановление&lt;br&gt;товара" style="ellipse;whiteSpace=wrap;html=1;" parent="1" vertex="1">
          <mxGeometry x="571" y="294" width="118" height="50" as="geometry" />
        </mxCell>
        <mxCell id="UxDNWM6CONCW11zJ59up-5" value="Поиск товаров" style="ellipse;whiteSpace=wrap;html=1;" parent="1" vertex="1">
          <mxGeometry x="752" y="636" width="140" height="51" as="geometry" />
        </mxCell>
        <mxCell id="UxDNWM6CONCW11zJ59up-6" value="Фильтрация &lt;br&gt;товаров" style="ellipse;whiteSpace=wrap;html=1;" parent="1" vertex="1">
          <mxGeometry x="747" y="718" width="140" height="52" as="geometry" />
        </mxCell>
        <mxCell id="UxDNWM6CONCW11zJ59up-7" value="Просмотр списка&lt;br&gt;товаров" style="ellipse;whiteSpace=wrap;html=1;" parent="1" vertex="1">
          <mxGeometry x="391" y="656" width="120" height="62" as="geometry" />
        </mxCell>
        <mxCell id="UxDNWM6CONCW11zJ59up-8" value="Просмотр товара" style="ellipse;whiteSpace=wrap;html=1;" parent="1" vertex="1">
          <mxGeometry x="717" y="555" width="140" height="48" as="geometry" />
        </mxCell>
        <mxCell id="UxDNWM6CONCW11zJ59up-9" value="Добавление &lt;br&gt;сотрудника" style="ellipse;whiteSpace=wrap;html=1;" parent="1" vertex="1">
          <mxGeometry x="996" y="504" width="98" height="51" as="geometry" />
        </mxCell>
        <mxCell id="UxDNWM6CONCW11zJ59up-10" value="Удаление &lt;br&gt;сотрудника" style="ellipse;whiteSpace=wrap;html=1;" parent="1" vertex="1">
          <mxGeometry x="1012" y="428.5" width="109" height="51" as="geometry" />
        </mxCell>
        <mxCell id="UxDNWM6CONCW11zJ59up-11" value="Обновление &lt;br&gt;сотрудника" style="ellipse;whiteSpace=wrap;html=1;" parent="1" vertex="1">
          <mxGeometry x="934" y="572" width="108" height="48" as="geometry" />
        </mxCell>
        <mxCell id="UxDNWM6CONCW11zJ59up-12" value="Просмотр списка сотрудников" style="ellipse;whiteSpace=wrap;html=1;" parent="1" vertex="1">
          <mxGeometry x="789" y="447" width="117" height="59" as="geometry" />
        </mxCell>
        <mxCell id="UxDNWM6CONCW11zJ59up-13" value="Просмотр списка&lt;br&gt;отгруженных товаров" style="ellipse;whiteSpace=wrap;html=1;" parent="1" vertex="1">
          <mxGeometry x="367" y="482" width="140" height="64" as="geometry" />
        </mxCell>
        <mxCell id="UxDNWM6CONCW11zJ59up-14" value="Создание задачи" style="ellipse;whiteSpace=wrap;html=1;" parent="1" vertex="1">
          <mxGeometry x="608.5" y="360" width="125" height="50" as="geometry" />
        </mxCell>
        <mxCell id="UxDNWM6CONCW11zJ59up-15" value="Просмотр доски&lt;br&gt;задач" style="ellipse;whiteSpace=wrap;html=1;" parent="1" vertex="1">
          <mxGeometry x="393" y="745" width="140" height="53" as="geometry" />
        </mxCell>
        <mxCell id="UxDNWM6CONCW11zJ59up-16" value="Комментирование &lt;br&gt;задачи" style="ellipse;whiteSpace=wrap;html=1;" parent="1" vertex="1">
          <mxGeometry x="854" y="773" width="140" height="57.5" as="geometry" />
        </mxCell>
        <mxCell id="UxDNWM6CONCW11zJ59up-17" value="Обновление&lt;br&gt;задачи" style="ellipse;whiteSpace=wrap;html=1;" parent="1" vertex="1">
          <mxGeometry x="686" y="421" width="94" height="46" as="geometry" />
        </mxCell>
        <mxCell id="UxDNWM6CONCW11zJ59up-18" value="Назначение задачи" style="ellipse;whiteSpace=wrap;html=1;" parent="1" vertex="1">
          <mxGeometry x="768" y="387" width="137" height="49" as="geometry" />
        </mxCell>
        <mxCell id="UxDNWM6CONCW11zJ59up-19" value="Изменение &lt;br&gt;статуса задачи" style="ellipse;whiteSpace=wrap;html=1;" parent="1" vertex="1">
          <mxGeometry x="752" y="862" width="140" height="53" as="geometry" />
        </mxCell>
        <mxCell id="UxDNWM6CONCW11zJ59up-20" value="Удаление задачи" style="ellipse;whiteSpace=wrap;html=1;" parent="1" vertex="1">
          <mxGeometry x="717" y="308" width="116" height="52" as="geometry" />
        </mxCell>
        <mxCell id="UxDNWM6CONCW11zJ59up-22" value="Просмотр словарей" style="ellipse;whiteSpace=wrap;html=1;" parent="1" vertex="1">
          <mxGeometry x="383" y="827" width="140" height="50" as="geometry" />
        </mxCell>
        <mxCell id="UxDNWM6CONCW11zJ59up-23" value="Просмотр адресной системы" style="ellipse;whiteSpace=wrap;html=1;" parent="1" vertex="1">
          <mxGeometry x="636" y="488" width="140" height="46" as="geometry" />
        </mxCell>
        <mxCell id="UxDNWM6CONCW11zJ59up-24" value="Просмотр настроек системы" style="ellipse;whiteSpace=wrap;html=1;" parent="1" vertex="1">
          <mxGeometry x="472" y="235" width="131" height="54" as="geometry" />
        </mxCell>
        <mxCell id="UxDNWM6CONCW11zJ59up-25" value="Обновление настроек системы" style="ellipse;whiteSpace=wrap;html=1;" parent="1" vertex="1">
          <mxGeometry x="709" y="230" width="141" height="56" as="geometry" />
        </mxCell>
        <mxCell id="5gmopuk7FULBQtef6R4t-1" value="Подтверждение готовности задачи" style="ellipse;whiteSpace=wrap;html=1;" vertex="1" parent="1">
          <mxGeometry x="399" y="915" width="140" height="60" as="geometry" />
        </mxCell>
        <mxCell id="5gmopuk7FULBQtef6R4t-4" value="" style="endArrow=none;html=1;rounded=0;entryX=0;entryY=0.5;entryDx=0;entryDy=0;exitX=1;exitY=0.3333333333333333;exitDx=0;exitDy=0;exitPerimeter=0;" edge="1" parent="1" source="PXV3ohP48C4_PZCZACCz-30" target="UxDNWM6CONCW11zJ59up-7">
          <mxGeometry width="50" height="50" relative="1" as="geometry">
            <mxPoint x="283" y="595" as="sourcePoint" />
            <mxPoint x="333" y="545" as="targetPoint" />
          </mxGeometry>
        </mxCell>
        <mxCell id="5gmopuk7FULBQtef6R4t-5" value="" style="endArrow=none;html=1;rounded=0;entryX=0;entryY=0.5;entryDx=0;entryDy=0;exitX=1;exitY=0.3333333333333333;exitDx=0;exitDy=0;exitPerimeter=0;" edge="1" parent="1" source="PXV3ohP48C4_PZCZACCz-1" target="UxDNWM6CONCW11zJ59up-13">
          <mxGeometry width="50" height="50" relative="1" as="geometry">
            <mxPoint x="283" y="595" as="sourcePoint" />
            <mxPoint x="333" y="545" as="targetPoint" />
          </mxGeometry>
        </mxCell>
        <mxCell id="5gmopuk7FULBQtef6R4t-7" value="&lt;font style=&quot;font-size: 8px;&quot;&gt;&amp;lt;&amp;lt;Расширить&amp;gt;&amp;gt;&lt;/font&gt;" style="endArrow=open;endSize=6;dashed=1;html=1;rounded=0;entryX=1;entryY=0;entryDx=0;entryDy=0;exitX=0;exitY=0.5;exitDx=0;exitDy=0;" edge="1" parent="1" source="UxDNWM6CONCW11zJ59up-8" target="UxDNWM6CONCW11zJ59up-7">
          <mxGeometry x="0.5825" y="-4" width="160" relative="1" as="geometry">
            <mxPoint x="83" y="604" as="sourcePoint" />
            <mxPoint x="243" y="604" as="targetPoint" />
            <mxPoint as="offset" />
          </mxGeometry>
        </mxCell>
        <mxCell id="5gmopuk7FULBQtef6R4t-8" value="&lt;font style=&quot;font-size: 8px;&quot;&gt;&amp;lt;&amp;lt;Расширить&amp;gt;&amp;gt;&lt;/font&gt;" style="endArrow=open;endSize=6;dashed=1;html=1;rounded=0;entryX=0.983;entryY=0.603;entryDx=0;entryDy=0;exitX=0;exitY=0.5;exitDx=0;exitDy=0;entryPerimeter=0;" edge="1" parent="1" source="UxDNWM6CONCW11zJ59up-5" target="UxDNWM6CONCW11zJ59up-7">
          <mxGeometry x="0.4452" width="160" relative="1" as="geometry">
            <mxPoint x="591" y="617" as="sourcePoint" />
            <mxPoint x="541" y="694" as="targetPoint" />
            <mxPoint as="offset" />
          </mxGeometry>
        </mxCell>
        <mxCell id="5gmopuk7FULBQtef6R4t-9" value="&lt;font style=&quot;font-size: 8px;&quot;&gt;&amp;lt;&amp;lt;Расширить&amp;gt;&amp;gt;&lt;/font&gt;" style="endArrow=open;endSize=6;dashed=1;html=1;rounded=0;entryX=1;entryY=1;entryDx=0;entryDy=0;exitX=0;exitY=0.5;exitDx=0;exitDy=0;" edge="1" parent="1" source="UxDNWM6CONCW11zJ59up-6" target="UxDNWM6CONCW11zJ59up-7">
          <mxGeometry width="160" relative="1" as="geometry">
            <mxPoint x="695" y="701" as="sourcePoint" />
            <mxPoint x="539" y="701" as="targetPoint" />
          </mxGeometry>
        </mxCell>
        <mxCell id="5gmopuk7FULBQtef6R4t-10" value="" style="endArrow=none;html=1;rounded=0;entryX=0;entryY=0.5;entryDx=0;entryDy=0;exitX=1;exitY=0.3333333333333333;exitDx=0;exitDy=0;exitPerimeter=0;" edge="1" parent="1" source="PXV3ohP48C4_PZCZACCz-2" target="5gmopuk7FULBQtef6R4t-1">
          <mxGeometry width="50" height="50" relative="1" as="geometry">
            <mxPoint x="286" y="762" as="sourcePoint" />
            <mxPoint x="407" y="806" as="targetPoint" />
          </mxGeometry>
        </mxCell>
        <mxCell id="5gmopuk7FULBQtef6R4t-11" value="" style="endArrow=block;endSize=6;endFill=0;html=1;rounded=0;exitX=0.5;exitY=0;exitDx=0;exitDy=0;exitPerimeter=0;" edge="1" parent="1" source="PXV3ohP48C4_PZCZACCz-2">
          <mxGeometry width="160" relative="1" as="geometry">
            <mxPoint x="113" y="734" as="sourcePoint" />
            <mxPoint x="255" y="672" as="targetPoint" />
          </mxGeometry>
        </mxCell>
        <mxCell id="PXV3ohP48C4_PZCZACCz-30" value="&lt;span style=&quot;background-color: rgb(255, 255, 255);&quot;&gt;Рабочий&lt;/span&gt;" style="shape=umlActor;verticalLabelPosition=bottom;verticalAlign=top;html=1;outlineConnect=0;" parent="1" vertex="1">
          <mxGeometry x="240" y="620" width="30" height="60" as="geometry" />
        </mxCell>
        <mxCell id="5gmopuk7FULBQtef6R4t-12" value="" style="endArrow=block;endSize=6;endFill=0;html=1;rounded=0;entryX=0.5;entryY=0;entryDx=0;entryDy=0;entryPerimeter=0;" edge="1" parent="1" source="PXV3ohP48C4_PZCZACCz-1" target="PXV3ohP48C4_PZCZACCz-30">
          <mxGeometry width="160" relative="1" as="geometry">
            <mxPoint x="184" y="650" as="sourcePoint" />
            <mxPoint x="184" y="520" as="targetPoint" />
          </mxGeometry>
        </mxCell>
        <mxCell id="PXV3ohP48C4_PZCZACCz-1" value="&lt;span style=&quot;background-color: rgb(255, 255, 255);&quot;&gt;Администратор&lt;/span&gt;" style="shape=umlActor;verticalLabelPosition=bottom;verticalAlign=top;html=1;outlineConnect=0;fillColor=default;" parent="1" vertex="1">
          <mxGeometry x="240" y="424" width="30" height="60" as="geometry" />
        </mxCell>
        <mxCell id="5gmopuk7FULBQtef6R4t-13" value="&lt;font style=&quot;font-size: 8px;&quot;&gt;&amp;lt;&amp;lt;Расширить&amp;gt;&amp;gt;&lt;/font&gt;" style="endArrow=open;endSize=6;dashed=1;html=1;rounded=0;entryX=0.96;entryY=0.76;entryDx=0;entryDy=0;exitX=0;exitY=0.5;exitDx=0;exitDy=0;entryPerimeter=0;" edge="1" parent="1" source="UxDNWM6CONCW11zJ59up-8" target="UxDNWM6CONCW11zJ59up-13">
          <mxGeometry width="160" relative="1" as="geometry">
            <mxPoint x="624" y="554" as="sourcePoint" />
            <mxPoint x="463" y="614" as="targetPoint" />
          </mxGeometry>
        </mxCell>
        <mxCell id="5gmopuk7FULBQtef6R4t-14" value="&lt;font style=&quot;font-size: 8px;&quot;&gt;&amp;lt;&amp;lt;Расширить&amp;gt;&amp;gt;&lt;/font&gt;" style="endArrow=open;endSize=6;dashed=1;html=1;rounded=0;entryX=1;entryY=1;entryDx=0;entryDy=0;exitX=0;exitY=0.5;exitDx=0;exitDy=0;" edge="1" parent="1" source="UxDNWM6CONCW11zJ59up-5" target="UxDNWM6CONCW11zJ59up-13">
          <mxGeometry width="160" relative="1" as="geometry">
            <mxPoint x="653" y="645" as="sourcePoint" />
            <mxPoint x="506" y="549" as="targetPoint" />
          </mxGeometry>
        </mxCell>
        <mxCell id="5gmopuk7FULBQtef6R4t-15" value="&lt;font style=&quot;font-size: 8px;&quot;&gt;&amp;lt;&amp;lt;Расширить&amp;gt;&amp;gt;&lt;/font&gt;" style="endArrow=open;endSize=6;dashed=1;html=1;rounded=0;entryX=0.745;entryY=0.927;entryDx=0;entryDy=0;exitX=0;exitY=0.5;exitDx=0;exitDy=0;entryPerimeter=0;" edge="1" parent="1" source="UxDNWM6CONCW11zJ59up-6" target="UxDNWM6CONCW11zJ59up-13">
          <mxGeometry x="0.4673" y="2" width="160" relative="1" as="geometry">
            <mxPoint x="662" y="742.5" as="sourcePoint" />
            <mxPoint x="488" y="561.5" as="targetPoint" />
            <mxPoint as="offset" />
          </mxGeometry>
        </mxCell>
        <mxCell id="5gmopuk7FULBQtef6R4t-16" value="Просмотр задачи" style="ellipse;whiteSpace=wrap;html=1;" vertex="1" parent="1">
          <mxGeometry x="601" y="792" width="140" height="53" as="geometry" />
        </mxCell>
        <mxCell id="5gmopuk7FULBQtef6R4t-17" value="" style="endArrow=none;html=1;rounded=0;entryX=0;entryY=0.5;entryDx=0;entryDy=0;exitX=1;exitY=0.3333333333333333;exitDx=0;exitDy=0;exitPerimeter=0;" edge="1" parent="1" source="PXV3ohP48C4_PZCZACCz-30" target="UxDNWM6CONCW11zJ59up-15">
          <mxGeometry width="50" height="50" relative="1" as="geometry">
            <mxPoint x="281" y="683" as="sourcePoint" />
            <mxPoint x="402" y="727" as="targetPoint" />
          </mxGeometry>
        </mxCell>
        <mxCell id="5gmopuk7FULBQtef6R4t-18" value="" style="endArrow=none;html=1;rounded=0;entryX=0;entryY=0.5;entryDx=0;entryDy=0;exitX=1;exitY=0.3333333333333333;exitDx=0;exitDy=0;exitPerimeter=0;" edge="1" parent="1" source="PXV3ohP48C4_PZCZACCz-30" target="UxDNWM6CONCW11zJ59up-22">
          <mxGeometry width="50" height="50" relative="1" as="geometry">
            <mxPoint x="275" y="674" as="sourcePoint" />
            <mxPoint x="391" y="814" as="targetPoint" />
          </mxGeometry>
        </mxCell>
        <mxCell id="5gmopuk7FULBQtef6R4t-19" value="&lt;font style=&quot;font-size: 8px;&quot;&gt;&amp;lt;&amp;lt;Расширить&amp;gt;&amp;gt;&lt;/font&gt;" style="endArrow=open;endSize=6;dashed=1;html=1;rounded=0;entryX=1;entryY=0.5;entryDx=0;entryDy=0;exitX=0;exitY=0.5;exitDx=0;exitDy=0;" edge="1" parent="1" source="5gmopuk7FULBQtef6R4t-16" target="UxDNWM6CONCW11zJ59up-15">
          <mxGeometry width="160" relative="1" as="geometry">
            <mxPoint x="804" y="776" as="sourcePoint" />
            <mxPoint x="521" y="718" as="targetPoint" />
          </mxGeometry>
        </mxCell>
        <mxCell id="5gmopuk7FULBQtef6R4t-20" value="&lt;font style=&quot;font-size: 8px;&quot;&gt;&amp;lt;&amp;lt;Расширить&amp;gt;&amp;gt;&lt;/font&gt;" style="endArrow=open;endSize=6;dashed=1;html=1;rounded=0;entryX=1;entryY=0.5;entryDx=0;entryDy=0;exitX=0;exitY=0.5;exitDx=0;exitDy=0;" edge="1" parent="1" source="UxDNWM6CONCW11zJ59up-16" target="5gmopuk7FULBQtef6R4t-16">
          <mxGeometry width="160" relative="1" as="geometry">
            <mxPoint x="715" y="857" as="sourcePoint" />
            <mxPoint x="432" y="799" as="targetPoint" />
          </mxGeometry>
        </mxCell>
        <mxCell id="5gmopuk7FULBQtef6R4t-21" value="&lt;font style=&quot;font-size: 8px;&quot;&gt;&amp;lt;&amp;lt;Включить&amp;gt;&amp;gt;&lt;/font&gt;" style="endArrow=open;endSize=6;dashed=1;html=1;rounded=0;entryX=0;entryY=0.5;entryDx=0;entryDy=0;exitX=1;exitY=0.5;exitDx=0;exitDy=0;" edge="1" parent="1" source="5gmopuk7FULBQtef6R4t-1" target="UxDNWM6CONCW11zJ59up-19">
          <mxGeometry width="160" relative="1" as="geometry">
            <mxPoint x="711" y="1008" as="sourcePoint" />
            <mxPoint x="616" y="991" as="targetPoint" />
          </mxGeometry>
        </mxCell>
        <mxCell id="5gmopuk7FULBQtef6R4t-22" value="&lt;font style=&quot;font-size: 8px;&quot;&gt;&amp;lt;&amp;lt;Расширить&amp;gt;&amp;gt;&lt;/font&gt;" style="endArrow=open;endSize=6;dashed=1;html=1;rounded=0;entryX=0.783;entryY=0.916;entryDx=0;entryDy=0;exitX=0.09;exitY=0.208;exitDx=0;exitDy=0;exitPerimeter=0;entryPerimeter=0;" edge="1" parent="1" source="UxDNWM6CONCW11zJ59up-19" target="5gmopuk7FULBQtef6R4t-16">
          <mxGeometry width="160" relative="1" as="geometry">
            <mxPoint x="846" y="846" as="sourcePoint" />
            <mxPoint x="751" y="829" as="targetPoint" />
          </mxGeometry>
        </mxCell>
        <mxCell id="5gmopuk7FULBQtef6R4t-23" value="" style="endArrow=none;html=1;rounded=0;entryX=0.039;entryY=0.701;entryDx=0;entryDy=0;exitX=1;exitY=0.3333333333333333;exitDx=0;exitDy=0;exitPerimeter=0;entryPerimeter=0;" edge="1" parent="1" source="PXV3ohP48C4_PZCZACCz-30" target="UxDNWM6CONCW11zJ59up-23">
          <mxGeometry width="50" height="50" relative="1" as="geometry">
            <mxPoint x="303" y="584" as="sourcePoint" />
            <mxPoint x="424" y="628" as="targetPoint" />
          </mxGeometry>
        </mxCell>
        <mxCell id="5gmopuk7FULBQtef6R4t-27" value="" style="endArrow=none;html=1;rounded=0;entryX=0;entryY=1;entryDx=0;entryDy=0;exitX=1;exitY=0.3333333333333333;exitDx=0;exitDy=0;exitPerimeter=0;" edge="1" parent="1" source="PXV3ohP48C4_PZCZACCz-1" target="UxDNWM6CONCW11zJ59up-1">
          <mxGeometry width="50" height="50" relative="1" as="geometry">
            <mxPoint x="375" y="392" as="sourcePoint" />
            <mxPoint x="488" y="435" as="targetPoint" />
          </mxGeometry>
        </mxCell>
        <mxCell id="5gmopuk7FULBQtef6R4t-28" value="" style="endArrow=none;html=1;rounded=0;entryX=0.03;entryY=0.718;entryDx=0;entryDy=0;exitX=1;exitY=0.3333333333333333;exitDx=0;exitDy=0;exitPerimeter=0;entryPerimeter=0;" edge="1" parent="1" source="PXV3ohP48C4_PZCZACCz-1" target="UxDNWM6CONCW11zJ59up-2">
          <mxGeometry width="50" height="50" relative="1" as="geometry">
            <mxPoint x="271" y="444" as="sourcePoint" />
            <mxPoint x="715" y="339" as="targetPoint" />
          </mxGeometry>
        </mxCell>
        <mxCell id="5gmopuk7FULBQtef6R4t-29" value="" style="endArrow=none;html=1;rounded=0;entryX=0;entryY=0.5;entryDx=0;entryDy=0;exitX=1;exitY=0.3333333333333333;exitDx=0;exitDy=0;exitPerimeter=0;" edge="1" parent="1" source="PXV3ohP48C4_PZCZACCz-1" target="UxDNWM6CONCW11zJ59up-3">
          <mxGeometry width="50" height="50" relative="1" as="geometry">
            <mxPoint x="280" y="454" as="sourcePoint" />
            <mxPoint x="855" y="385" as="targetPoint" />
          </mxGeometry>
        </mxCell>
        <mxCell id="5gmopuk7FULBQtef6R4t-31" value="" style="endArrow=none;html=1;rounded=0;entryX=0.557;entryY=0.998;entryDx=0;entryDy=0;exitX=1;exitY=0.3333333333333333;exitDx=0;exitDy=0;exitPerimeter=0;entryPerimeter=0;" edge="1" parent="1" source="PXV3ohP48C4_PZCZACCz-1" target="UxDNWM6CONCW11zJ59up-4">
          <mxGeometry width="50" height="50" relative="1" as="geometry">
            <mxPoint x="279" y="453" as="sourcePoint" />
            <mxPoint x="740" y="343" as="targetPoint" />
          </mxGeometry>
        </mxCell>
        <mxCell id="5gmopuk7FULBQtef6R4t-32" value="" style="endArrow=none;html=1;rounded=0;entryX=0;entryY=0.5;entryDx=0;entryDy=0;exitX=1;exitY=0.3333333333333333;exitDx=0;exitDy=0;exitPerimeter=0;" edge="1" parent="1" source="PXV3ohP48C4_PZCZACCz-1" target="UxDNWM6CONCW11zJ59up-12">
          <mxGeometry width="50" height="50" relative="1" as="geometry">
            <mxPoint x="282" y="470.5" as="sourcePoint" />
            <mxPoint x="388" y="347.5" as="targetPoint" />
          </mxGeometry>
        </mxCell>
        <mxCell id="5gmopuk7FULBQtef6R4t-33" value="&lt;font style=&quot;font-size: 8px;&quot;&gt;&amp;lt;&amp;lt;Расширить&amp;gt;&amp;gt;&lt;/font&gt;" style="endArrow=open;endSize=6;dashed=1;html=1;rounded=0;exitX=0;exitY=0.5;exitDx=0;exitDy=0;entryX=0.991;entryY=0.441;entryDx=0;entryDy=0;entryPerimeter=0;" edge="1" parent="1" source="UxDNWM6CONCW11zJ59up-10" target="UxDNWM6CONCW11zJ59up-12">
          <mxGeometry width="160" relative="1" as="geometry">
            <mxPoint x="675" y="278" as="sourcePoint" />
            <mxPoint x="920" y="475" as="targetPoint" />
          </mxGeometry>
        </mxCell>
        <mxCell id="5gmopuk7FULBQtef6R4t-34" value="&lt;font style=&quot;font-size: 8px;&quot;&gt;&amp;lt;&amp;lt;Расширить&amp;gt;&amp;gt;&lt;/font&gt;" style="endArrow=open;endSize=6;dashed=1;html=1;rounded=0;entryX=0.964;entryY=0.68;entryDx=0;entryDy=0;exitX=0;exitY=0.5;exitDx=0;exitDy=0;entryPerimeter=0;" edge="1" parent="1" source="UxDNWM6CONCW11zJ59up-9" target="UxDNWM6CONCW11zJ59up-12">
          <mxGeometry width="160" relative="1" as="geometry">
            <mxPoint x="719" y="275" as="sourcePoint" />
            <mxPoint x="675" y="336" as="targetPoint" />
          </mxGeometry>
        </mxCell>
        <mxCell id="5gmopuk7FULBQtef6R4t-35" value="&lt;font style=&quot;font-size: 8px;&quot;&gt;&amp;lt;&amp;lt;Расширить&amp;gt;&amp;gt;&lt;/font&gt;" style="endArrow=open;endSize=6;dashed=1;html=1;rounded=0;entryX=0.652;entryY=0.971;entryDx=0;entryDy=0;exitX=0.048;exitY=0.282;exitDx=0;exitDy=0;entryPerimeter=0;exitPerimeter=0;" edge="1" parent="1" source="UxDNWM6CONCW11zJ59up-11" target="UxDNWM6CONCW11zJ59up-12">
          <mxGeometry width="160" relative="1" as="geometry">
            <mxPoint x="783" y="301" as="sourcePoint" />
            <mxPoint x="672" y="326" as="targetPoint" />
          </mxGeometry>
        </mxCell>
        <mxCell id="5gmopuk7FULBQtef6R4t-36" value="" style="endArrow=none;html=1;rounded=0;entryX=0.246;entryY=0.937;entryDx=0;entryDy=0;exitX=1;exitY=0.3333333333333333;exitDx=0;exitDy=0;exitPerimeter=0;entryPerimeter=0;" edge="1" parent="1" source="PXV3ohP48C4_PZCZACCz-1" target="UxDNWM6CONCW11zJ59up-24">
          <mxGeometry width="50" height="50" relative="1" as="geometry">
            <mxPoint x="280" y="454" as="sourcePoint" />
            <mxPoint x="364" y="319" as="targetPoint" />
          </mxGeometry>
        </mxCell>
        <mxCell id="5gmopuk7FULBQtef6R4t-37" value="&lt;font style=&quot;font-size: 8px;&quot;&gt;&amp;lt;&amp;lt;Расширить&amp;gt;&amp;gt;&lt;/font&gt;" style="endArrow=open;endSize=6;dashed=1;html=1;rounded=0;entryX=1;entryY=0.5;entryDx=0;entryDy=0;exitX=0;exitY=0.5;exitDx=0;exitDy=0;" edge="1" parent="1" source="UxDNWM6CONCW11zJ59up-25" target="UxDNWM6CONCW11zJ59up-24">
          <mxGeometry width="160" relative="1" as="geometry">
            <mxPoint x="699" y="244" as="sourcePoint" />
            <mxPoint x="655" y="305" as="targetPoint" />
          </mxGeometry>
        </mxCell>
        <mxCell id="5gmopuk7FULBQtef6R4t-38" value="" style="endArrow=none;html=1;rounded=0;entryX=0;entryY=0.5;entryDx=0;entryDy=0;exitX=1;exitY=0.3333333333333333;exitDx=0;exitDy=0;exitPerimeter=0;" edge="1" parent="1" source="PXV3ohP48C4_PZCZACCz-1" target="UxDNWM6CONCW11zJ59up-14">
          <mxGeometry width="50" height="50" relative="1" as="geometry">
            <mxPoint x="270" y="444" as="sourcePoint" />
            <mxPoint x="638" y="353" as="targetPoint" />
          </mxGeometry>
        </mxCell>
        <mxCell id="5gmopuk7FULBQtef6R4t-39" value="" style="endArrow=none;html=1;rounded=0;entryX=0;entryY=0.5;entryDx=0;entryDy=0;exitX=1;exitY=0.3333333333333333;exitDx=0;exitDy=0;exitPerimeter=0;" edge="1" parent="1" source="PXV3ohP48C4_PZCZACCz-1" target="UxDNWM6CONCW11zJ59up-17">
          <mxGeometry width="50" height="50" relative="1" as="geometry">
            <mxPoint x="280" y="454" as="sourcePoint" />
            <mxPoint x="619" y="395" as="targetPoint" />
          </mxGeometry>
        </mxCell>
        <mxCell id="5gmopuk7FULBQtef6R4t-40" value="" style="endArrow=none;html=1;rounded=0;entryX=0;entryY=0.5;entryDx=0;entryDy=0;exitX=1;exitY=0.3333333333333333;exitDx=0;exitDy=0;exitPerimeter=0;" edge="1" parent="1" source="PXV3ohP48C4_PZCZACCz-1" target="UxDNWM6CONCW11zJ59up-20">
          <mxGeometry width="50" height="50" relative="1" as="geometry">
            <mxPoint x="280" y="454" as="sourcePoint" />
            <mxPoint x="712" y="443" as="targetPoint" />
          </mxGeometry>
        </mxCell>
        <mxCell id="5gmopuk7FULBQtef6R4t-41" value="" style="endArrow=none;html=1;rounded=0;entryX=0;entryY=0.5;entryDx=0;entryDy=0;exitX=1;exitY=0.3333333333333333;exitDx=0;exitDy=0;exitPerimeter=0;" edge="1" parent="1" source="PXV3ohP48C4_PZCZACCz-1" target="UxDNWM6CONCW11zJ59up-18">
          <mxGeometry width="50" height="50" relative="1" as="geometry">
            <mxPoint x="280" y="454" as="sourcePoint" />
            <mxPoint x="619" y="395" as="targetPoint" />
          </mxGeometry>
        </mxCell>
        <mxCell id="5gmopuk7FULBQtef6R4t-42" value="Уведомление&lt;br&gt;администратора об изменении статуса задачи" style="ellipse;whiteSpace=wrap;html=1;" vertex="1" parent="1">
          <mxGeometry x="942" y="880" width="172" height="92" as="geometry" />
        </mxCell>
        <mxCell id="5gmopuk7FULBQtef6R4t-43" value="&lt;font style=&quot;font-size: 8px;&quot;&gt;&amp;lt;&amp;lt;Включить&amp;gt;&amp;gt;&lt;/font&gt;" style="endArrow=open;endSize=6;dashed=1;html=1;rounded=0;entryX=0;entryY=0.5;entryDx=0;entryDy=0;exitX=0.968;exitY=0.671;exitDx=0;exitDy=0;exitPerimeter=0;" edge="1" parent="1" source="UxDNWM6CONCW11zJ59up-19" target="5gmopuk7FULBQtef6R4t-42">
          <mxGeometry width="160" relative="1" as="geometry">
            <mxPoint x="549" y="955" as="sourcePoint" />
            <mxPoint x="646" y="944" as="targetPoint" />
          </mxGeometry>
        </mxCell>
        <mxCell id="5gmopuk7FULBQtef6R4t-44" value="Изменение местоположения товара" style="ellipse;whiteSpace=wrap;html=1;" vertex="1" parent="1">
          <mxGeometry x="668" y="917" width="125" height="62" as="geometry" />
        </mxCell>
        <mxCell id="5gmopuk7FULBQtef6R4t-45" value="&lt;font style=&quot;font-size: 8px;&quot;&gt;&amp;lt;&amp;lt;Включить&amp;gt;&amp;gt;&lt;/font&gt;" style="endArrow=open;endSize=6;dashed=1;html=1;rounded=0;entryX=0;entryY=0.5;entryDx=0;entryDy=0;exitX=0.985;exitY=0.627;exitDx=0;exitDy=0;exitPerimeter=0;" edge="1" parent="1" source="5gmopuk7FULBQtef6R4t-1" target="5gmopuk7FULBQtef6R4t-44">
          <mxGeometry width="160" relative="1" as="geometry">
            <mxPoint x="549" y="955" as="sourcePoint" />
            <mxPoint x="762" y="899" as="targetPoint" />
          </mxGeometry>
        </mxCell>
      </root>
    </mxGraphModel>
  </diagram>
</mxfile>
